<svg width="257" height="49" viewBox="0 0 257 49" fill="none" xmlns="http://www.w3.org/2000/svg">
<path d="M4.78906 13.8438V49H0.394531V13.8438C0.394531 5.05469 4.78906 0.660156 13.5781 0.660156H22.3672C27.582 0.660156 31.2441 2.19824 33.3535 5.27441C35.4629 2.19824 39.125 0.660156 44.3398 0.660156H53.1289C61.918 0.660156 66.3125 5.05469 66.3125 13.8438V49H61.918V13.8438C61.918 7.98438 58.9883 5.05469 53.1289 5.05469H44.3398C38.4805 5.05469 35.5508 7.98438 35.5508 13.8438V49H31.1562V13.8438C31.1562 7.98438 28.2266 5.05469 22.3672 5.05469H13.5781C7.71875 5.05469 4.78906 7.98438 4.78906 13.8438Z" fill="white"/>
<path d="M129.741 0.660156V5.05469H85.7961V22.6328H129.741V27.0273H85.7961V44.6055H129.741V49H81.4016V0.660156H129.741Z" fill="white"/>
<path d="M149.225 13.8438V49H144.83V13.8438C144.83 5.05469 149.225 0.660156 158.014 0.660156H179.987C188.776 0.660156 193.17 5.05469 193.17 13.8438V49H188.776V13.8438C188.776 7.98438 185.846 5.05469 179.987 5.05469H158.014C152.155 5.05469 149.225 7.98438 149.225 13.8438Z" fill="white"/>
<path d="M208.259 35.8164V0.660156H212.654V35.8164C212.654 41.6758 215.584 44.6055 221.443 44.6055H243.416C249.275 44.6055 252.205 41.6758 252.205 35.8164V0.660156H256.599V35.8164C256.599 44.6055 252.205 49 243.416 49H221.443C212.654 49 208.259 44.6055 208.259 35.8164Z" fill="white"/>
</svg>
