<svg width="614" height="85" viewBox="0 0 614 85" fill="none" xmlns="http://www.w3.org/2000/svg">
<path d="M33.8777 17.0724H37.0645V27.5654C37.0645 27.5654 37.0645 27.6703 37.0645 27.8802C37.0645 28.0901 37.0549 28.3436 37.0358 28.6409C37.0358 28.9208 24.1485 32.8179 24.1485 33.0452L14.3262 50.1516L13.6659 49.5483C13.6659 46.8201 13.6659 44.4417 13.6659 42.413C13.6659 40.3844 13.6659 38.1109 13.6659 35.5926L25.3221 24.8897C27.1596 23.2108 28.7865 21.7243 30.2028 20.4301C31.2746 19.4508 32.4996 18.3315 33.8777 17.0724ZM22.0492 25.7291H11.7423V52.5388H4.33519C4.06723 52.294 3.81842 52.0579 3.58874 51.8305C2.97626 51.2709 2.39249 50.7463 1.83743 50.2566C1.30152 49.7494 0.689037 49.181 0 48.5515V15H31.6957V16.915C30.2219 18.2616 28.9109 19.4595 27.7625 20.5088C26.0973 22.0303 24.1929 23.7704 22.0492 25.7291ZM35.1241 46.925L37.0358 45.9282C37.0358 47.4497 37.0358 48.805 37.0358 49.9943C37.0358 50.7288 37.0358 51.5682 37.0358 52.5126C35.2749 52.5126 33.715 52.5126 32.356 52.5126C30.9971 52.5126 29.4276 52.5213 27.6476 52.5388L32.9681 48.9834L35.1241 46.925Z" fill="white"/>
<path d="M46.8132 28.5336H50V39.0266C50 39.0266 50 39.1315 50 39.3414C50 39.5512 49.9904 39.8048 49.9713 40.1021C49.9713 40.3819 49.9713 40.6355 49.9713 40.8629L27.2618 61.6128L26.6014 61.0095C26.6014 58.2813 26.6014 55.9029 26.6014 53.8742C26.6014 51.8456 26.6014 49.5721 26.6014 47.0538L38.2577 36.3509C40.0951 34.672 41.722 33.1855 43.1383 31.8913C44.2102 30.912 45.4351 29.7927 46.8132 28.5336ZM34.9847 37.1903H24.6779V64H17.2707C17.0028 63.7552 16.7539 63.5191 16.5243 63.2917C15.9118 62.7321 15.328 62.2074 14.773 61.7178C14.237 61.2106 13.6246 60.6422 12.9355 60.0126V26.4612H44.6312V28.3762C43.1575 29.7228 41.8464 30.9207 40.698 31.97C39.0328 33.4915 37.1284 35.2316 34.9847 37.1903ZM42.5067 50.8312L49.9713 57.3894C49.9713 58.9109 49.9713 60.2662 49.9713 61.4554C49.9713 62.19 49.9713 63.0294 49.9713 63.9738C48.2104 63.9738 46.6505 63.9738 45.2916 63.9738C43.9326 63.9738 42.3632 63.9825 40.5832 64L34.2383 58.3862L42.5067 50.8312Z" fill="white"/>
<path d="M103.551 15.6602C112.34 15.6602 116.734 20.0547 116.734 28.8438C116.734 34.0586 115.196 37.7207 112.12 39.8301C115.196 41.9395 116.734 45.6016 116.734 50.8164V64H112.34V50.8164C112.34 44.957 109.41 42.0273 103.551 42.0273H72.7891V64H68.3945V15.6602H103.551ZM103.551 20.0547H72.7891V37.6328H103.551C109.41 37.6328 112.34 34.7031 112.34 28.8438C112.34 22.9844 109.41 20.0547 103.551 20.0547ZM136.218 64H131.823V15.6602H136.218V64ZM164.491 15.6602H199.647V20.0547H164.491C158.631 20.0547 155.702 22.9844 155.702 28.8438C155.702 34.7031 158.631 37.6328 164.491 37.6328H186.463C195.252 37.6328 199.647 42.0273 199.647 50.8164C199.647 59.6055 195.252 64 186.463 64H151.307V59.6055H186.463C192.323 59.6055 195.252 56.6758 195.252 50.8164C195.252 44.957 192.323 42.0273 186.463 42.0273H164.491C155.702 42.0273 151.307 37.6328 151.307 28.8438C151.307 20.0547 155.702 15.6602 164.491 15.6602ZM219.13 42.0273V64H214.736V15.6602H219.13V37.6328H249.892C255.752 37.6328 258.681 34.7031 258.681 28.8438V15.6602H263.076V28.8438C263.076 34.0586 261.538 37.7207 258.462 39.8301C261.538 41.9395 263.076 45.6016 263.076 50.8164V64H258.681V50.8164C258.681 44.957 255.752 42.0273 249.892 42.0273H219.13ZM341.945 15.6602C350.734 15.6602 355.129 20.0547 355.129 28.8438C355.129 34.0586 353.591 37.7207 350.515 39.8301C353.591 41.9395 355.129 45.6016 355.129 50.8164V64H350.734V50.8164C350.734 44.957 347.805 42.0273 341.945 42.0273H311.184V64H306.789V15.6602H341.945ZM341.945 20.0547H311.184V37.6328H341.945C347.805 37.6328 350.734 34.7031 350.734 28.8438C350.734 22.9844 347.805 20.0547 341.945 20.0547ZM383.402 15.6602H405.374C414.163 15.6602 418.558 20.0547 418.558 28.8438V64H414.163V44.2246H374.612V64H370.218V28.8438C370.218 20.0547 374.612 15.6602 383.402 15.6602ZM405.374 20.0547H383.402C377.542 20.0547 374.612 22.9844 374.612 28.8438V39.8301H414.163V28.8438C414.163 22.9844 411.234 20.0547 405.374 20.0547ZM468.803 15.6602C477.592 15.6602 481.987 20.0547 481.987 28.8438V50.8164C481.987 59.6055 477.592 64 468.803 64H433.647V15.6602H468.803ZM468.803 20.0547H438.041V59.6055H468.803C474.663 59.6055 477.592 56.6758 477.592 50.8164V28.8438C477.592 22.9844 474.663 20.0547 468.803 20.0547ZM510.259 15.6602H532.232C541.021 15.6602 545.416 20.0547 545.416 28.8438V64H541.021V44.2246H501.47V64H497.076V28.8438C497.076 20.0547 501.47 15.6602 510.259 15.6602ZM532.232 20.0547H510.259C504.4 20.0547 501.47 22.9844 501.47 28.8438V39.8301H541.021V28.8438C541.021 22.9844 538.091 20.0547 532.232 20.0547ZM595.661 15.6602C604.45 15.6602 608.845 20.0547 608.845 28.8438C608.845 34.0586 607.306 37.7207 604.23 39.8301C607.306 41.9395 608.845 45.6016 608.845 50.8164V64H604.45V50.8164C604.45 44.957 601.52 42.0273 595.661 42.0273H564.899V64H560.505V15.6602H595.661ZM595.661 20.0547H564.899V37.6328H595.661C601.52 37.6328 604.45 34.7031 604.45 28.8438C604.45 22.9844 601.52 20.0547 595.661 20.0547Z" fill="white"/>
</svg>
