<svg width="541" height="49" viewBox="0 0 541 49" fill="none" xmlns="http://www.w3.org/2000/svg">
<path d="M35.5508 0.660156C44.3398 0.660156 48.7344 5.05469 48.7344 13.8438C48.7344 19.0586 47.1963 22.7207 44.1201 24.8301C47.1963 26.9395 48.7344 30.6016 48.7344 35.8164V49H44.3398V35.8164C44.3398 29.957 41.4102 27.0273 35.5508 27.0273H4.78906V49H0.394531V0.660156H35.5508ZM35.5508 5.05469H4.78906V22.6328H35.5508C41.4102 22.6328 44.3398 19.7031 44.3398 13.8438C44.3398 7.98438 41.4102 5.05469 35.5508 5.05469ZM68.218 49H63.8234V0.660156H68.218V49ZM96.4906 0.660156H131.647V5.05469H96.4906C90.6312 5.05469 87.7016 7.98438 87.7016 13.8438C87.7016 19.7031 90.6312 22.6328 96.4906 22.6328H118.463C127.252 22.6328 131.647 27.0273 131.647 35.8164C131.647 44.6055 127.252 49 118.463 49H83.307V44.6055H118.463C124.323 44.6055 127.252 41.6758 127.252 35.8164C127.252 29.957 124.323 27.0273 118.463 27.0273H96.4906C87.7016 27.0273 83.307 22.6328 83.307 13.8438C83.307 5.05469 87.7016 0.660156 96.4906 0.660156ZM151.13 27.0273V49H146.736V0.660156H151.13V22.6328H181.892C187.752 22.6328 190.681 19.7031 190.681 13.8438V0.660156H195.076V13.8438C195.076 19.0586 193.538 22.7207 190.462 24.8301C193.538 26.9395 195.076 30.6016 195.076 35.8164V49H190.681V35.8164C190.681 29.957 187.752 27.0273 181.892 27.0273H151.13ZM273.945 0.660156C282.734 0.660156 287.129 5.05469 287.129 13.8438C287.129 19.0586 285.591 22.7207 282.515 24.8301C285.591 26.9395 287.129 30.6016 287.129 35.8164V49H282.734V35.8164C282.734 29.957 279.805 27.0273 273.945 27.0273H243.184V49H238.789V0.660156H273.945ZM273.945 5.05469H243.184V22.6328H273.945C279.805 22.6328 282.734 19.7031 282.734 13.8438C282.734 7.98438 279.805 5.05469 273.945 5.05469ZM315.402 0.660156H337.374C346.163 0.660156 350.558 5.05469 350.558 13.8438V49H346.163V29.2246H306.612V49H302.218V13.8438C302.218 5.05469 306.612 0.660156 315.402 0.660156ZM337.374 5.05469H315.402C309.542 5.05469 306.612 7.98438 306.612 13.8438V24.8301H346.163V13.8438C346.163 7.98438 343.234 5.05469 337.374 5.05469ZM400.803 0.660156C409.592 0.660156 413.987 5.05469 413.987 13.8438V35.8164C413.987 44.6055 409.592 49 400.803 49H365.647V0.660156H400.803ZM400.803 5.05469H370.041V44.6055H400.803C406.663 44.6055 409.592 41.6758 409.592 35.8164V13.8438C409.592 7.98438 406.663 5.05469 400.803 5.05469ZM442.259 0.660156H464.232C473.021 0.660156 477.416 5.05469 477.416 13.8438V49H473.021V29.2246H433.47V49H429.076V13.8438C429.076 5.05469 433.47 0.660156 442.259 0.660156ZM464.232 5.05469H442.259C436.4 5.05469 433.47 7.98438 433.47 13.8438V24.8301H473.021V13.8438C473.021 7.98438 470.091 5.05469 464.232 5.05469ZM527.661 0.660156C536.45 0.660156 540.845 5.05469 540.845 13.8438C540.845 19.0586 539.306 22.7207 536.23 24.8301C539.306 26.9395 540.845 30.6016 540.845 35.8164V49H536.45V35.8164C536.45 29.957 533.52 27.0273 527.661 27.0273H496.899V49H492.505V0.660156H527.661ZM527.661 5.05469H496.899V22.6328H527.661C533.52 22.6328 536.45 19.7031 536.45 13.8438C536.45 7.98438 533.52 5.05469 527.661 5.05469Z" fill="white"/>
</svg>
